<?xml version="1.0" encoding="utf-8"?>
<!-- Generator: Adobe Illustrator 16.0.0, SVG Export Plug-In . SVG Version: 6.00 Build 0)  -->
<!DOCTYPE svg PUBLIC "-//W3C//DTD SVG 1.1//EN" "http://www.w3.org/Graphics/SVG/1.1/DTD/svg11.dtd">
<svg version="1.1" id="Layer_1" xmlns="http://www.w3.org/2000/svg" xmlns:xlink="http://www.w3.org/1999/xlink" x="0px" y="0px"
	 width="800px" height="800px" viewBox="0 0 800 800" enable-background="new 0 0 800 800" xml:space="preserve">
<g>
	<g>
		<path fill="#636358" d="M683.337,584.774c-21.91-74.188-131.893-65.958-179.363-87.264
			c-47.468-21.304-40.058-92.785-46.077-105.222H342.093c-6.009,12.437,1.402,83.927-46.078,105.222
			c-47.468,21.306-157.461,13.078-179.363,87.264c-12.083,40.918-11.509,53.434-14.843,98.76c0,0,150.912,29.843,294.778,29.843
			c143.865,0,301.604-29.843,301.604-29.843C694.844,638.195,695.421,625.694,683.337,584.774z"/>
		<path fill="#515147" d="M683.337,584.774c-21.91-74.188-131.893-65.958-179.363-87.264
			c-47.468-21.304-40.058-92.785-46.077-105.222h-61.32c0,0-1.413,100.263,46.056,121.567s157.461,13.077,179.363,87.262
			c11.509,38.966,11.531,52.176,14.392,92.498c37.795-5.533,61.783-10.071,61.783-10.071
			C694.844,638.195,695.421,625.694,683.337,584.774z"/>
		<path fill="#EAE5DC" d="M452.684,712.007l28.064-198.324H319.232l28.108,198.613c16.356,0.695,32.846,1.083,49.247,1.083
			C415.175,713.377,434.007,712.881,452.684,712.007z"/>
		<path fill="#393C3D" d="M460.148,531.45c19.141-7.476,34.891-18.487,45.525-31.853l0.818-1.016
			c-0.852-0.354-1.691-0.707-2.508-1.071c-47.469-21.304-40.06-92.785-46.077-105.222H342.093
			c-6.009,12.437,1.402,83.928-46.078,105.222c-0.817,0.364-1.656,0.729-2.507,1.071l0.817,1.016
			c10.636,13.353,26.385,24.364,45.525,31.853c18.134,7.081,38.932,10.824,60.148,10.824
			C421.218,542.274,442.014,538.531,460.148,531.45z"/>
		<path fill="#2F3233" d="M503.974,497.511c-8.536-3.832-15.285-9.288-20.664-15.727l0,0c-9.951,12.491-27.169,22.408-48.286,27.697
			c2.386,1.691,4.927,3.158,7.62,4.363c9.257,4.152,20.896,7.189,33.797,9.929c11.851-6.637,21.79-14.831,29.225-24.177l0.816-1.017
			C505.631,498.24,504.791,497.875,503.974,497.511z"/>
		<path fill="#AD815C" d="M483.31,481.784c-24.561-29.381-20.477-79.301-25.401-89.505H342.093
			c-4.936,10.204-0.839,60.127-25.401,89.505C331.734,500.67,363.388,513.68,400,513.68
			C436.611,513.68,468.267,500.67,483.31,481.784z"/>
		<path fill="#9E6A43" d="M435.022,509.481c21.118-5.289,38.335-15.209,48.286-27.697c-24.563-29.381-20.478-79.301-25.401-89.505
			h-61.32C396.588,392.289,395.329,481.475,435.022,509.481z"/>
		<path fill="#A06F53" d="M326.51,466.165c19.218,15.64,41.737,31.146,73.37,35.63c31.71-4.497,54.173-20.322,73.413-36.026
			c-16.004-29.421-11.055-64.512-15.386-73.491H342.093C337.742,401.269,342.59,436.731,326.51,466.165z"/>
		<path fill="#515147" d="M545.037,579.295l-30.13-10.923l27.07-7.457l-25.801-58.888l-80.071,210.664
			c9.389-0.321,18.764-0.741,28.086-1.248L545.037,579.295z"/>
		<path fill="#515147" d="M255.981,560.906l27.07,7.455l-30.13,10.923l80.99,132.381c9.267,0.485,18.611,0.873,27.976,1.16
			L281.626,502.67L255.981,560.906z"/>
		<path fill="#72726A" d="M536.565,580.93l-29.146-12.26l26.45-9.399l-17.692-57.253l-33.223-25.835l-63.098,236.939
			c13.695-0.287,27.435-0.807,41.074-1.525L536.565,580.93z"/>
		<path fill="#636358" d="M482.944,476.183l-12.336,46.31c16.777,3.822,36.127,6.892,55.355,11.222l-9.795-31.696L482.944,476.183z"
			/>
		<path fill="#72726A" d="M281.614,502.68l-17.54,56.604l26.451,9.398l-29.146,12.26l75.776,130.91
			c13.563,0.675,27.268,1.15,40.964,1.382L314.99,476.207L281.614,502.68z"/>
		
			<ellipse transform="matrix(0.9842 0.177 -0.177 0.9842 65.0269 -89.7732)" fill="#9E6A43" cx="535.667" cy="319.571" rx="22.851" ry="42.023"/>
		
			<ellipse transform="matrix(0.177 0.9842 -0.9842 0.177 531.806 3.1989)" fill="#AD815C" cx="263.99" cy="319.591" rx="42.023" ry="22.851"/>
		<path fill="#AD815C" d="M526.074,179.682H399.88H273.75c0,0-70.718,288.097,126.128,315.984
			C596.803,467.779,526.074,179.682,526.074,179.682z"/>
		<path fill="#9E6A43" d="M399.878,495.666c196.924-27.887,126.195-315.984,126.195-315.984h-29.522
			c8.083,120.34,19.273,184.266-27.147,253.958C432.626,488.863,399.878,495.666,399.878,495.666z"/>
		<path fill="#9E6A43" d="M549.941,191.356c-11.244-44.742-67.979-95.745-149.939-95.745c-81.961,0-138.698,51.003-149.942,95.745
			l15.098,124.305c0.11-13.617,0.53-39.573,1.867-56.283c1.878-23.36,13.264-67.924,51.556-67.351
			c14.27,0.22,47.7,23.36,81.41,23.36c32.494,0,65.262-23.117,81.411-23.36c38.291-0.574,49.68,43.991,51.557,67.351
			c1.346,16.732,1.799,42.831,1.909,56.437L549.941,191.356z"/>
		<path fill="#3B3B3B" d="M534.876,315.806c36.535-40.202,15.065-133.439,15.065-133.439C538.697,137.625,481.962,86.621,400,86.621
			c-81.962,0-138.695,51.004-149.952,95.745c0,0-21.481,93.304,15.098,133.485l0,0l0,0c0,0-0.012-42.113,1.878-65.46
			c1.89-23.349,13.264-67.925,51.556-67.351c14.27,0.22,47.7,23.36,81.41,23.36c32.494,0,65.262-23.117,81.411-23.36
			c38.291-0.574,49.68,43.99,51.557,67.351c1.875,23.359,1.875,65.46,1.875,65.46l0,0l0,0
			C534.854,315.829,534.866,315.817,534.876,315.806z"/>
	</g>
</g>
</svg>
